<?xml version="1.0" encoding="UTF-8"?>
<svg xmlns="http://www.w3.org/2000/svg" width="1254" height="1254" viewBox="0 0 1254 1254" fill="none">
  <title>True vector logo</title>
  <path d="M 599 172 L 598 173 L 588 173 L 560 177 L 520 186 L 484 198 L 439 219 L 408 238 L 379 260 L 365 272 L 330 308 L 305 340 L 287 368 L 266 409 L 253 442 L 243 476 L 235 519 L 234 536 L 233 537 L 233 552 L 232 553 L 233 598 L 234 599 L 237 631 L 247 675 L 258 708 L 275 746 L 294 779 L 323 818 L 341 838 L 372 867 L 405 892 L 443 915 L 476 931 L 514 945 L 558 956 L 593 961 L 604 961 L 605 962 L 667 961 L 712 954 L 746 945 L 781 932 L 818 914 L 840 901 L 874 877 L 895 859 L 929 823 L 951 794 L 974 756 L 974 754 L 976 752 L 988 727 L 1003 687 L 1014 644 L 1014 638 L 1016 632 L 1018 611 L 1019 610 L 1020 586 L 1021 585 L 1020 534 L 1019 533 L 1019 524 L 1018 523 L 1016 502 L 1005 454 L 991 415 L 973 377 L 957 350 L 938 323 L 919 300 L 886 267 L 854 242 L 819 220 L 784 203 L 743 188 L 717 181 L 669 173 L 640 172 L 639 171 Z
M 605 185 L 653 185 L 654 186 L 673 187 L 717 195 L 754 206 L 795 223 L 823 238 L 857 261 L 882 282 L 912 313 L 932 338 L 954 371 L 974 410 L 988 446 L 998 482 L 998 487 L 1003 508 L 1005 531 L 1006 532 L 1006 542 L 1007 543 L 1006 604 L 1001 639 L 992 676 L 977 718 L 960 753 L 939 787 L 916 817 L 882 852 L 863 868 L 827 893 L 786 915 L 757 927 L 754 927 L 751 929 L 725 937 L 681 946 L 651 948 L 650 949 L 611 949 L 610 948 L 598 948 L 597 947 L 573 945 L 539 938 L 505 928 L 473 915 L 435 895 L 395 868 L 370 847 L 343 820 L 317 788 L 299 761 L 279 723 L 268 696 L 254 648 L 249 619 L 247 590 L 246 589 L 246 548 L 247 547 L 247 534 L 248 533 L 249 518 L 257 476 L 263 455 L 265 452 L 265 449 L 281 409 L 300 373 L 320 343 L 345 312 L 378 279 L 412 252 L 437 236 L 472 218 L 502 206 L 544 194 L 570 189 L 592 187 L 593 186 L 604 186 Z
M 609 286 L 585 292 L 564 300 L 533 317 L 511 334 L 490 357 L 476 379 L 470 393 L 470 407 L 476 419 L 483 425 L 491 428 L 527 428 L 531 427 L 541 420 L 549 408 L 565 392 L 583 379 L 597 372 L 614 366 L 635 362 L 662 362 L 680 365 L 696 370 L 711 377 L 727 387 L 747 405 L 756 416 L 769 438 L 776 458 L 779 476 L 778 505 L 773 527 L 764 548 L 753 565 L 735 584 L 722 594 L 703 604 L 692 608 L 674 612 L 604 612 L 591 615 L 582 620 L 575 627 L 571 634 L 568 643 L 568 658 L 574 673 L 584 683 L 599 689 L 631 689 L 632 690 L 637 689 L 679 689 L 680 688 L 696 687 L 718 682 L 735 676 L 758 665 L 788 644 L 811 621 L 833 589 L 847 558 L 852 542 L 857 518 L 858 499 L 859 498 L 859 470 L 853 434 L 846 413 L 835 390 L 816 362 L 790 335 L 760 313 L 723 295 L 696 287 L 691 287 L 685 285 L 671 284 L 670 283 L 631 283 L 630 284 Z" fill="#0E2240" fill-rule="evenodd"/>
  <path d="M 506 465 L 477 473 L 459 481 L 436 495 L 424 504 L 402 526 L 387 546 L 370 579 L 364 596 L 359 617 L 359 624 L 357 632 L 357 668 L 361 693 L 372 726 L 381 744 L 390 758 L 406 778 L 418 790 L 431 801 L 450 814 L 483 830 L 503 836 L 525 840 L 566 841 L 567 840 L 588 838 L 605 834 L 629 825 L 654 811 L 677 793 L 690 779 L 698 768 L 700 762 L 700 748 L 696 739 L 689 732 L 677 728 L 642 728 L 628 733 L 617 743 L 601 753 L 583 760 L 562 764 L 529 763 L 513 759 L 498 753 L 483 744 L 472 735 L 461 724 L 452 712 L 442 693 L 437 678 L 434 662 L 434 638 L 438 619 L 443 605 L 450 591 L 462 575 L 473 564 L 490 552 L 502 546 L 516 541 L 541 537 L 575 537 L 585 534 L 593 529 L 598 524 L 605 511 L 606 494 L 601 481 L 593 471 L 581 464 L 574 462 L 528 462 L 527 463 L 518 463 Z" fill="#0DB3BB" fill-rule="evenodd"/>
</svg>
